<mxfile host="app.diagrams.net" agent="Mozilla/5.0 (Windows NT 10.0; Win64; x64) AppleWebKit/537.36 (KHTML, like Gecko) Chrome/133.0.0.0 Safari/537.36" version="26.0.16">
  <diagram name="Strona-1" id="YSH5sPkINpLwEBdsjIIf">
    <mxGraphModel dx="1434" dy="780" grid="1" gridSize="10" guides="1" tooltips="1" connect="1" arrows="1" fold="1" page="1" pageScale="1" pageWidth="827" pageHeight="1169" math="0" shadow="0">
      <root>
        <mxCell id="0" />
        <mxCell id="1" parent="0" />
        <mxCell id="8eDoYHQKxMCIRETX9l2Y-1" value="" style="rounded=0;whiteSpace=wrap;html=1;" vertex="1" parent="1">
          <mxGeometry x="380" y="190" width="190" height="270" as="geometry" />
        </mxCell>
        <mxCell id="8eDoYHQKxMCIRETX9l2Y-2" value="Firma IT&lt;div&gt;&lt;br&gt;&lt;/div&gt;" style="text;html=1;align=center;verticalAlign=middle;whiteSpace=wrap;rounded=0;" vertex="1" parent="1">
          <mxGeometry x="445" y="310" width="60" height="30" as="geometry" />
        </mxCell>
        <mxCell id="8eDoYHQKxMCIRETX9l2Y-14" style="edgeStyle=orthogonalEdgeStyle;rounded=0;orthogonalLoop=1;jettySize=auto;html=1;" edge="1" parent="1" source="8eDoYHQKxMCIRETX9l2Y-3" target="8eDoYHQKxMCIRETX9l2Y-1">
          <mxGeometry relative="1" as="geometry" />
        </mxCell>
        <mxCell id="8eDoYHQKxMCIRETX9l2Y-3" value="Księgowa&lt;div&gt;&lt;br&gt;&lt;/div&gt;" style="shape=umlActor;verticalLabelPosition=bottom;verticalAlign=top;html=1;outlineConnect=0;" vertex="1" parent="1">
          <mxGeometry x="560" y="80" width="30" height="60" as="geometry" />
        </mxCell>
        <mxCell id="8eDoYHQKxMCIRETX9l2Y-4" value="Urząd skarbowy&lt;div&gt;&lt;br&gt;&lt;/div&gt;" style="shape=umlActor;verticalLabelPosition=bottom;verticalAlign=top;html=1;outlineConnect=0;" vertex="1" parent="1">
          <mxGeometry x="650" y="10" width="30" height="60" as="geometry" />
        </mxCell>
        <mxCell id="8eDoYHQKxMCIRETX9l2Y-11" style="edgeStyle=orthogonalEdgeStyle;rounded=0;orthogonalLoop=1;jettySize=auto;html=1;" edge="1" parent="1" source="8eDoYHQKxMCIRETX9l2Y-5" target="8eDoYHQKxMCIRETX9l2Y-6">
          <mxGeometry relative="1" as="geometry" />
        </mxCell>
        <mxCell id="8eDoYHQKxMCIRETX9l2Y-5" value="Firmy" style="shape=umlActor;verticalLabelPosition=bottom;verticalAlign=top;html=1;outlineConnect=0;" vertex="1" parent="1">
          <mxGeometry x="140" y="240" width="30" height="60" as="geometry" />
        </mxCell>
        <mxCell id="8eDoYHQKxMCIRETX9l2Y-15" style="edgeStyle=orthogonalEdgeStyle;rounded=0;orthogonalLoop=1;jettySize=auto;html=1;" edge="1" parent="1" source="8eDoYHQKxMCIRETX9l2Y-6" target="8eDoYHQKxMCIRETX9l2Y-1">
          <mxGeometry relative="1" as="geometry" />
        </mxCell>
        <mxCell id="8eDoYHQKxMCIRETX9l2Y-6" value="klient&lt;div&gt;&lt;br&gt;&lt;/div&gt;" style="shape=umlActor;verticalLabelPosition=bottom;verticalAlign=top;html=1;outlineConnect=0;" vertex="1" parent="1">
          <mxGeometry x="230" y="190" width="30" height="60" as="geometry" />
        </mxCell>
        <mxCell id="8eDoYHQKxMCIRETX9l2Y-12" style="edgeStyle=orthogonalEdgeStyle;rounded=0;orthogonalLoop=1;jettySize=auto;html=1;" edge="1" parent="1" source="8eDoYHQKxMCIRETX9l2Y-8" target="8eDoYHQKxMCIRETX9l2Y-6">
          <mxGeometry relative="1" as="geometry" />
        </mxCell>
        <mxCell id="8eDoYHQKxMCIRETX9l2Y-8" value="Klient&amp;nbsp;&lt;br&gt;indywidualny&lt;div&gt;&lt;br&gt;&lt;/div&gt;" style="shape=umlActor;verticalLabelPosition=bottom;verticalAlign=top;html=1;outlineConnect=0;" vertex="1" parent="1">
          <mxGeometry x="140" y="120" width="30" height="60" as="geometry" />
        </mxCell>
        <mxCell id="8eDoYHQKxMCIRETX9l2Y-13" style="edgeStyle=orthogonalEdgeStyle;rounded=0;orthogonalLoop=1;jettySize=auto;html=1;entryX=0.5;entryY=0;entryDx=0;entryDy=0;entryPerimeter=0;" edge="1" parent="1" source="8eDoYHQKxMCIRETX9l2Y-4" target="8eDoYHQKxMCIRETX9l2Y-3">
          <mxGeometry relative="1" as="geometry">
            <mxPoint x="560" y="100" as="targetPoint" />
          </mxGeometry>
        </mxCell>
        <mxCell id="8eDoYHQKxMCIRETX9l2Y-16" value="Hurtownia&amp;nbsp;&lt;div&gt;części zamiennych&lt;/div&gt;&lt;div&gt;&lt;br&gt;&lt;/div&gt;" style="shape=umlActor;verticalLabelPosition=bottom;verticalAlign=top;html=1;outlineConnect=0;" vertex="1" parent="1">
          <mxGeometry x="680" y="210" width="30" height="60" as="geometry" />
        </mxCell>
        <mxCell id="8eDoYHQKxMCIRETX9l2Y-19" style="edgeStyle=orthogonalEdgeStyle;rounded=0;orthogonalLoop=1;jettySize=auto;html=1;entryX=1;entryY=0.193;entryDx=0;entryDy=0;entryPerimeter=0;" edge="1" parent="1" source="8eDoYHQKxMCIRETX9l2Y-16" target="8eDoYHQKxMCIRETX9l2Y-1">
          <mxGeometry relative="1" as="geometry" />
        </mxCell>
        <mxCell id="8eDoYHQKxMCIRETX9l2Y-21" style="edgeStyle=orthogonalEdgeStyle;rounded=0;orthogonalLoop=1;jettySize=auto;html=1;exitX=0;exitY=0.3333333333333333;exitDx=0;exitDy=0;exitPerimeter=0;" edge="1" parent="1" source="8eDoYHQKxMCIRETX9l2Y-20" target="8eDoYHQKxMCIRETX9l2Y-1">
          <mxGeometry relative="1" as="geometry">
            <Array as="points">
              <mxPoint x="690" y="360" />
              <mxPoint x="630" y="360" />
              <mxPoint x="630" y="325" />
            </Array>
          </mxGeometry>
        </mxCell>
        <mxCell id="8eDoYHQKxMCIRETX9l2Y-20" value="Operator kart&amp;nbsp;&lt;div&gt;płatniczych&lt;/div&gt;&lt;div&gt;&lt;br&gt;&lt;/div&gt;" style="shape=umlActor;verticalLabelPosition=bottom;verticalAlign=top;html=1;outlineConnect=0;" vertex="1" parent="1">
          <mxGeometry x="690" y="320" width="30" height="60" as="geometry" />
        </mxCell>
      </root>
    </mxGraphModel>
  </diagram>
</mxfile>
